<mxfile host="app.diagrams.net" agent="Mozilla/5.0 (X11; Ubuntu; Linux x86_64; rv:132.0) Gecko/20100101 Firefox/132.0" version="24.8.4">
  <diagram name="Page-1" id="cEtNdU2hRdxy1vfRbz68">
    <mxGraphModel dx="699" dy="408" grid="1" gridSize="10" guides="1" tooltips="1" connect="1" arrows="1" fold="1" page="1" pageScale="1" pageWidth="850" pageHeight="1100" math="1" shadow="0">
      <root>
        <mxCell id="0" />
        <mxCell id="1" parent="0" />
        <mxCell id="QygiSmQX-n5kjb3UEBy6-1" value="&lt;div&gt;$$H_{transmit}(s)$$&lt;/div&gt;&lt;div&gt;&lt;br&gt;&lt;/div&gt;&lt;div&gt;&lt;br&gt;&lt;/div&gt;&lt;div&gt;&lt;br&gt;&lt;/div&gt;&lt;div&gt;&lt;br&gt;&lt;/div&gt;" style="rounded=0;whiteSpace=wrap;html=1;" vertex="1" parent="1">
          <mxGeometry x="160" y="240" width="80" height="80" as="geometry" />
        </mxCell>
        <mxCell id="QygiSmQX-n5kjb3UEBy6-2" value="&lt;div&gt;$$H_{recive}(s)$$&lt;/div&gt;&lt;div&gt;&lt;br&gt;&lt;/div&gt;&lt;div&gt;&lt;br&gt;&lt;/div&gt;&lt;div&gt;&lt;br&gt;&lt;/div&gt;&lt;div&gt;&lt;br&gt;&lt;/div&gt;" style="rounded=0;whiteSpace=wrap;html=1;" vertex="1" parent="1">
          <mxGeometry x="340" y="240" width="80" height="80" as="geometry" />
        </mxCell>
        <mxCell id="QygiSmQX-n5kjb3UEBy6-3" value="" style="shape=flexArrow;endArrow=classic;html=1;rounded=0;" edge="1" parent="1">
          <mxGeometry width="50" height="50" relative="1" as="geometry">
            <mxPoint x="240" y="280" as="sourcePoint" />
            <mxPoint x="340" y="280" as="targetPoint" />
          </mxGeometry>
        </mxCell>
        <mxCell id="QygiSmQX-n5kjb3UEBy6-4" value="" style="endArrow=classic;html=1;rounded=0;entryX=0;entryY=0.5;entryDx=0;entryDy=0;" edge="1" parent="1" target="QygiSmQX-n5kjb3UEBy6-1">
          <mxGeometry width="50" height="50" relative="1" as="geometry">
            <mxPoint x="80" y="280" as="sourcePoint" />
            <mxPoint x="210" y="280" as="targetPoint" />
          </mxGeometry>
        </mxCell>
        <mxCell id="QygiSmQX-n5kjb3UEBy6-5" value="&lt;div&gt;Driver signal&lt;/div&gt;" style="text;html=1;align=center;verticalAlign=middle;whiteSpace=wrap;rounded=0;" vertex="1" parent="1">
          <mxGeometry x="70" y="250" width="70" height="30" as="geometry" />
        </mxCell>
        <mxCell id="QygiSmQX-n5kjb3UEBy6-6" value="$$V_d$$" style="text;html=1;align=center;verticalAlign=middle;whiteSpace=wrap;rounded=0;" vertex="1" parent="1">
          <mxGeometry x="30" y="265" width="60" height="30" as="geometry" />
        </mxCell>
        <mxCell id="QygiSmQX-n5kjb3UEBy6-7" value="$$p(s)$$" style="text;html=1;align=center;verticalAlign=middle;whiteSpace=wrap;rounded=0;" vertex="1" parent="1">
          <mxGeometry x="250" y="255" width="60" height="20" as="geometry" />
        </mxCell>
        <mxCell id="QygiSmQX-n5kjb3UEBy6-8" value="" style="endArrow=classic;html=1;rounded=0;entryX=0;entryY=0.5;entryDx=0;entryDy=0;" edge="1" parent="1" target="QygiSmQX-n5kjb3UEBy6-9">
          <mxGeometry width="50" height="50" relative="1" as="geometry">
            <mxPoint x="420" y="280" as="sourcePoint" />
            <mxPoint x="500" y="280" as="targetPoint" />
          </mxGeometry>
        </mxCell>
        <mxCell id="QygiSmQX-n5kjb3UEBy6-9" value="$$V_r$$" style="text;html=1;align=center;verticalAlign=middle;whiteSpace=wrap;rounded=0;" vertex="1" parent="1">
          <mxGeometry x="520" y="265" width="50" height="30" as="geometry" />
        </mxCell>
        <mxCell id="QygiSmQX-n5kjb3UEBy6-10" value="Recieved signal" style="text;html=1;align=center;verticalAlign=middle;whiteSpace=wrap;rounded=0;" vertex="1" parent="1">
          <mxGeometry x="430" y="250" width="90" height="30" as="geometry" />
        </mxCell>
        <mxCell id="QygiSmQX-n5kjb3UEBy6-12" value="" style="group;rotation=-180;" vertex="1" connectable="0" parent="1">
          <mxGeometry x="359.995" y="270" width="37.5" height="30" as="geometry" />
        </mxCell>
        <mxCell id="QygiSmQX-n5kjb3UEBy6-13" value="" style="endArrow=none;html=1;rounded=0;" edge="1" parent="QygiSmQX-n5kjb3UEBy6-12">
          <mxGeometry width="50" height="50" relative="1" as="geometry">
            <mxPoint x="38" y="23" as="sourcePoint" />
            <mxPoint x="23" y="23" as="targetPoint" />
          </mxGeometry>
        </mxCell>
        <mxCell id="QygiSmQX-n5kjb3UEBy6-14" value="" style="endArrow=none;html=1;rounded=0;" edge="1" parent="QygiSmQX-n5kjb3UEBy6-12">
          <mxGeometry width="50" height="50" relative="1" as="geometry">
            <mxPoint x="38" y="8" as="sourcePoint" />
            <mxPoint x="23" y="8" as="targetPoint" />
          </mxGeometry>
        </mxCell>
        <mxCell id="QygiSmQX-n5kjb3UEBy6-15" value="" style="shape=cylinder3;whiteSpace=wrap;html=1;boundedLbl=1;backgroundOutline=1;size=4.724137931034591;rotation=-90;" vertex="1" parent="QygiSmQX-n5kjb3UEBy6-12">
          <mxGeometry x="4" width="30" height="30" as="geometry" />
        </mxCell>
        <mxCell id="QygiSmQX-n5kjb3UEBy6-16" value="" style="group;rotation=0;" vertex="1" connectable="0" parent="1">
          <mxGeometry x="180.005" y="270" width="37.5" height="30" as="geometry" />
        </mxCell>
        <mxCell id="QygiSmQX-n5kjb3UEBy6-17" value="" style="endArrow=none;html=1;rounded=0;" edge="1" parent="QygiSmQX-n5kjb3UEBy6-16">
          <mxGeometry width="50" height="50" relative="1" as="geometry">
            <mxPoint y="7" as="sourcePoint" />
            <mxPoint x="15" y="7" as="targetPoint" />
          </mxGeometry>
        </mxCell>
        <mxCell id="QygiSmQX-n5kjb3UEBy6-18" value="" style="endArrow=none;html=1;rounded=0;" edge="1" parent="QygiSmQX-n5kjb3UEBy6-16">
          <mxGeometry width="50" height="50" relative="1" as="geometry">
            <mxPoint y="22" as="sourcePoint" />
            <mxPoint x="15" y="22" as="targetPoint" />
          </mxGeometry>
        </mxCell>
        <mxCell id="QygiSmQX-n5kjb3UEBy6-19" value="" style="shape=cylinder3;whiteSpace=wrap;html=1;boundedLbl=1;backgroundOutline=1;size=4.724137931034591;rotation=90;" vertex="1" parent="QygiSmQX-n5kjb3UEBy6-16">
          <mxGeometry x="4" width="30" height="30" as="geometry" />
        </mxCell>
      </root>
    </mxGraphModel>
  </diagram>
</mxfile>
